HIERARCHY
ROOT Hips
{
  OFFSET 13.6774 106.653 -34.4427
  CHANNELS 6 Xposition Yposition Zposition Zrotation Xrotation Yrotation
  JOINT ToSpine
  {
    OFFSET -2.69724 7.43032 -0.144315
    CHANNELS 3 Zrotation Xrotation Yrotation
    JOINT Spine
    {
      OFFSET -0.0310711 10.7595 1.96963
      CHANNELS 3 Zrotation Xrotation Yrotation
      JOINT Spine1
      {
        OFFSET 19.9056 3.91189 0.764692
        CHANNELS 3 Zrotation Xrotation Yrotation
        JOINT Neck
        {
          OFFSET 25.9749 7.03908 -0.130764
          CHANNELS 3 Zrotation Xrotation Yrotation
          JOINT Head
          {
            OFFSET 9.52751 0.295786 -0.907742
            CHANNELS 3 Zrotation Xrotation Yrotation
            End Site
            {
              OFFSET 16.4037 0.713936 2.7358
            }
          }
        }
        JOINT LeftShoulder
        {
          OFFSET 17.7449 4.33886 11.7777
          CHANNELS 3 Zrotation Xrotation Yrotation
          JOINT LeftArm
          {
            OFFSET 0.911315 1.27913 9.80584
            CHANNELS 3 Zrotation Xrotation Yrotation
            JOINT LeftForeArm
            {
              OFFSET 28.6126 1.18197 -3.53199
              CHANNELS 3 Zrotation Xrotation Yrotation
              JOINT LeftHand
              {
                OFFSET 27.5088 0.0218783 0.327423
                CHANNELS 3 Zrotation Xrotation Yrotation
                End Site
                {
                  OFFSET 18.6038 -0.000155887 0.382096
                }
              }
            }
          }
        }
        JOINT RightShoulder
        {
          OFFSET 17.1009 2.89543 -12.2328
          CHANNELS 3 Zrotation Xrotation Yrotation
          JOINT RightArm
          {
            OFFSET 1.4228 0.178766 -10.211
            CHANNELS 3 Zrotation Xrotation Yrotation
            JOINT RightForeArm
            {
              OFFSET 28.733 1.87905 2.64907
              CHANNELS 3 Zrotation Xrotation Yrotation
              JOINT RightHand
              {
                OFFSET 27.4588 0.290562 -0.101845
                CHANNELS 3 Zrotation Xrotation Yrotation
                End Site
                {
                  OFFSET 17.8396 -0.255518 -0.000602873
                }
              }
            }
          }
        }
      }
    }
  }
  JOINT LeftUpLeg
  {
    OFFSET -5.61296 -2.22332 -10.2353
    CHANNELS 3 Zrotation Xrotation Yrotation
    JOINT LeftLeg
    {
      OFFSET 2.56703 -44.7417 -7.93097
      CHANNELS 3 Zrotation Xrotation Yrotation
      JOINT LeftFoot
      {
        OFFSET 3.16933 -46.5642 -3.96578
        CHANNELS 3 Zrotation Xrotation Yrotation
        JOINT LeftToeBase
        {
          OFFSET 0.346054 -6.02161 12.8035
          CHANNELS 3 Zrotation Xrotation Yrotation
          End Site
          {
            OFFSET 0.134235 -1.35082 5.13018
          }
        }
      }
    }
  }
  JOINT RightUpLeg
  {
    OFFSET -5.7928 -1.72406 10.6446
    CHANNELS 3 Zrotation Xrotation Yrotation
    JOINT RightLeg
    {
      OFFSET -2.57161 -44.7178 -7.85259
      CHANNELS 3 Zrotation Xrotation Yrotation
      JOINT RightFoot
      {
        OFFSET -3.10148 -46.5936 -4.03391
        CHANNELS 3 Zrotation Xrotation Yrotation
        JOINT RightToeBase
        {
          OFFSET -0.0828122 -6.13587 12.8035
          CHANNELS 3 Zrotation Xrotation Yrotation
          End Site
          {
            OFFSET -0.131328 -1.35082 5.13018
          }
        }
      }
    }
  }
}
MOTION
Frames: 7
Frame Time: 0.03333333333333333
0.0000 93.1000 0.0000 90.9312 -15.1022 1.8218 -70.9975 -0.1897 88.0047 52.1571 64.6705 36.9875 0.8937 19.6703 4.2086 -131.1192 45.8844 134.9688 -77.3912 74.1030 90.7947 -0.6802 -18.6625 -30.3342 -52.2542 28.2515 -142.0432 18.2730 -7.0221 -108.0249 -0.0745 -0.3052 0.0610 -1.9113 8.0253 34.2106 -131.7718 4.7124 74.5493 20.0753 -9.7510 65.9686 0.0926 0.2701 0.1375 -64.7933 10.9805 84.8210 -6.0645 56.3912 -14.1814 3.4046 -24.8978 -2.3244 3.6229 -12.7907 21.8322 -64.9779 -14.8601 80.0369 1.8526 53.1869 -3.9232 -6.2432 -19.8871 1.1932 2.4564 -13.2632 -22.8840 
0.0000 93.1000 0.0000 90.7641 -15.0973 0.7963 -70.9950 -0.2404 88.0069 52.0235 64.7810 37.2575 0.7723 19.1371 4.8191 -132.0530 45.5669 136.0137 -77.4708 74.1660 90.6709 -0.4164 -18.5366 -29.6138 -52.8463 28.1420 -142.8020 18.4780 -7.0791 -107.9051 -0.0146 -0.3447 0.0480 -1.7514 7.6624 33.5696 -132.0485 4.1214 74.4087 20.0596 -9.4138 66.9859 0.0771 0.3401 0.3205 -64.1024 10.8879 84.5795 -6.3818 55.1732 -14.1387 3.5728 -23.7721 -2.4856 3.7449 -12.8912 22.3008 -65.0072 -15.1498 78.9656 1.9739 52.0331 -5.0394 -5.8613 -19.3233 1.2581 1.8802 -12.9994 -17.7585 
0.0000 93.1000 0.0000 89.9630 -15.0506 0.8620 -70.9924 0.1544 88.0074 54.1216 64.8141 34.5538 0.8638 19.1754 5.1801 -131.0866 45.2331 135.1108 -77.5095 74.9255 91.4965 -0.5710 -18.4020 -28.9963 -52.1010 27.9912 -144.0025 18.4777 -6.8907 -107.0124 -0.1130 0.0717 -0.0596 -1.8318 7.2671 34.0681 -132.1585 3.6864 75.2141 20.0064 -8.9238 67.8224 -0.0985 -0.0203 0.0234 -63.6276 11.1565 84.4256 -6.3170 54.1537 -13.9672 3.1625 -23.7735 -2.5402 3.6402 -12.7167 20.8140 -64.7752 -15.9613 78.3077 1.8536 51.3285 -5.0746 -5.6439 -18.8260 1.3635 1.1535 -12.5056 -16.4277 
0.0000 93.1000 0.0000 89.0120 -15.1133 1.0989 -70.9936 0.1399 88.0071 53.9157 64.9974 32.3248 0.8829 18.7954 5.8533 -131.9715 45.1143 137.3158 -79.6194 75.8491 91.3937 -0.8539 -18.2158 -28.7599 -52.8757 28.2785 -144.9308 18.9307 -6.1036 -106.0323 -0.1503 0.1014 0.0363 -2.0855 6.9298 34.8931 -132.8878 3.9698 75.8081 18.9020 -8.0826 69.1326 -0.0720 -0.0521 -0.0762 -63.1396 11.2539 84.9679 -6.2236 53.1558 -13.9337 2.3759 -23.1807 -2.2709 4.0077 -13.0921 20.0600 -64.1266 -16.2045 78.0239 2.2040 50.0249 -5.0764 -5.8942 -18.4118 1.3040 1.4511 -11.9155 -13.5999 
0.0000 93.1000 0.0000 86.9396 -15.3770 0.2254 -70.9991 -0.4586 88.0091 53.9582 65.1366 31.0923 0.7814 17.8852 7.0366 -133.1069 44.7449 139.0525 -81.2711 76.9033 94.7021 -0.7541 -17.9509 -28.1099 -53.0809 28.1081 -145.8504 19.8690 -5.8399 -105.1786 0.0481 -0.4629 0.2943 -2.1277 6.2145 35.0481 -133.9654 3.2405 77.0331 18.0060 -7.1123 70.8841 0.4820 0.4971 0.3914 -62.8717 11.0450 86.1040 -5.0126 51.0571 -14.7415 1.7229 -21.1880 -1.9499 4.0344 -12.7047 18.1515 -62.8367 -15.8924 78.0938 2.0592 48.0441 -4.0170 -5.3234 -17.3829 0.7450 2.3482 -12.6479 -14.2812 
0.0000 93.1000 0.0000 85.0624 -15.9416 -1.0276 -70.9960 -0.1667 88.0124 55.9130 65.1679 27.9663 0.9588 16.8572 8.6069 -133.1182 44.4256 140.1952 -83.3506 78.3810 97.6056 -0.7469 -18.1029 -27.9857 -54.1080 28.0535 -146.8975 20.9372 -5.8125 -103.9602 -0.0064 -0.1621 0.2113 -2.1215 5.9895 36.0273 -134.0227 3.0806 78.9307 17.0221 -5.9105 72.9555 0.2038 0.2668 0.1885 -62.0929 11.0333 86.0411 -4.8309 48.4181 -13.7596 0.9198 -19.7220 -1.9379 4.1228 -12.8189 15.5339 -61.0961 -15.0562 78.2221 1.1613 45.8734 -3.9289 -3.7818 -15.7851 0.7012 2.1936 -12.3221 -15.4707 
0.0000 93.1000 0.0000 82.9780 -16.3102 -0.8724 -70.9972 -0.4432 88.0143 57.0471 65.8739 25.7961 1.2475 16.2796 9.7309 -133.0778 44.0477 143.4207 -87.4292 80.3557 101.8472 -0.2779 -17.3442 -27.3221 -55.1201 28.0885 -147.8712 21.2601 -6.0344 -103.1153 -0.1680 -0.4708 0.4154 -1.9714 5.8312 36.9114 -134.9091 3.6446 79.8097 16.2991 -4.7726 74.9795 0.4618 0.5665 0.4253 -60.9521 10.8848 86.8511 -3.8398 46.2878 -13.7000 0.3358 -18.0678 -1.9478 4.0396 -12.1260 14.0912 -59.6388 -15.0605 77.9753 0.8217 44.0083 -3.1887 -3.0288 -14.5447 0.4248 2.2186 -10.9791 -14.0155 
